<svg id="Capa_1" enable-background="new 0 0 512 512" height="512" viewBox="0 0 512 512" width="512" xmlns="http://www.w3.org/2000/svg"><g><path d="m316 361h-120c-8.284 0-15 6.716-15 15v80c0 8.284 6.716 15 15 15h120c8.284 0 15-6.716 15-15v-80c0-8.284-6.716-15-15-15z" fill="#47568c"/><path d="m316 361h-60v110h60c8.284 0 15-6.716 15-15v-80c0-8.284-6.716-15-15-15z" fill="#29376d"/><path d="m346 481h-180c-8.284 0-15-6.716-15-15s6.716-15 15-15h180c8.284 0 15 6.716 15 15s-6.716 15-15 15z" fill="#61729b"/><path d="m346 451h-90v30h90c8.284 0 15-6.716 15-15s-6.716-15-15-15z" fill="#47568c"/><path d="m497 31h-482c-8.284 0-15 6.716-15 15v330c0 8.284 6.716 15 15 15h482c8.284 0 15-6.716 15-15v-330c0-8.284-6.716-15-15-15z" fill="#61729b"/><path d="m497 31h-241v360h241c8.284 0 15-6.716 15-15v-330c0-8.284-6.716-15-15-15z" fill="#47568c"/><path d="m128 110.703c-7.443 0-13.477 6.034-13.477 13.478v85.355c0 7.443 6.034 13.478 13.477 13.478h85.356c7.443 0 13.477-6.034 13.477-13.478 0-54.496-44.336-98.833-98.833-98.833z" fill="#00cc76"/><path d="m128 208.446v-97.743c-54.497 0-98.833 44.337-98.833 98.833 0 54.498 44.336 98.834 98.833 98.834s98.833-44.336 98.833-98.834c0-.368-.026-.729-.055-1.09z" fill="#edf5ff"/><g fill="#d5e8fe"><path d="m437.25 145.943h-35c-8.284 0-15 6.716-15 15 0 7.895 6.103 14.35 13.846 14.942l-36.272 36.271-28.967-28.968c-5.857-5.859-15.354-5.857-21.213 0-5.858 5.857-5.858 15.355 0 21.213l39.574 39.574c2.813 2.813 6.628 4.394 10.606 4.394s7.793-1.58 10.607-4.394l46.878-46.878c.591 7.742 7.047 13.845 14.941 13.845 8.284 0 15-6.716 15-15v-35c0-8.283-6.716-14.999-15-14.999z"/><path d="m437.25 308.37h-112c-8.284 0-15-6.716-15-15s6.716-15 15-15h112c8.284 0 15 6.716 15 15s-6.716 15-15 15z"/></g></g></svg>