<svg id="Capa_1" enable-background="new 0 0 512 512" height="512" viewBox="0 0 512 512" width="512" xmlns="http://www.w3.org/2000/svg"><g><path d="m366.999 123.718c-8.284 0-15-6.716-15-15v-93.719c0-8.284 6.716-14.999 15-14.999s15 6.715 15 14.999v93.719c0 8.284-6.716 15-15 15z" fill="#47568c"/><path d="m497 160.001h-86.299c-8.284 0-15-6.716-15-15s6.716-15 15-15h86.299c8.284 0 15 6.716 15 15s-6.716 15-15 15z" fill="#47568c"/><g fill="#61729b"><path d="m145.001 123.718c-8.284 0-15-6.716-15-15v-93.719c0-8.284 6.716-14.999 15-14.999s15 6.715 15 14.999v93.719c0 8.284-6.716 15-15 15z"/><path d="m101.299 160.001h-86.299c-8.284 0-15-6.716-15-15s6.716-15 15-15h86.299c8.284 0 15 6.716 15 15s-6.716 15-15 15z"/><path d="m466 272h-45.676c-7.6-83.982-78.396-150-164.324-150s-156.725 66.018-164.324 150h-45.676c-8.284 0-15 6.716-15 15 0 60.1 23.404 116.602 65.901 159.099s98.999 65.901 159.099 65.901 116.602-23.404 159.099-65.901 65.901-98.999 65.901-159.099c0-8.284-6.716-15-15-15z"/></g><path d="m466 272h-45.676c-7.599-83.98-78.391-149.995-164.314-150v390c60.096-.003 116.595-23.406 159.089-65.901 42.497-42.497 65.901-98.999 65.901-159.099 0-8.284-6.716-15-15-15z" fill="#47568c"/><path d="m415.099 127.901c-42.497-42.497-98.999-65.901-159.099-65.901s-116.602 23.404-159.099 65.901-65.901 98.999-65.901 159.099h75c0-82.71 67.29-150 150-150s150 67.29 150 150h75.02c0-.272-.007-.541-.022-.809-.207-59.799-23.591-115.982-65.899-158.29z" fill="#ff712f"/><path d="m480.998 286.191c-.207-59.8-23.592-115.982-65.899-158.29-42.495-42.495-98.993-65.898-159.089-65.901v75c82.706.006 149.99 67.293 149.99 150h75.02c0-.272-.007-.541-.022-.809z" fill="#ff3f5c"/><circle cx="256" cy="287" fill="#47568c" r="75"/><path d="m256.01 212v150c41.351-.006 74.99-33.647 74.99-75s-33.64-74.994-74.99-75z" fill="#29376d"/></g></svg>